<?xml version="1.0" standalone="no"?>
<!DOCTYPE svg PUBLIC "-//W3C//DTD SVG 20010904//EN"
 "http://www.w3.org/TR/2001/REC-SVG-20010904/DTD/svg10.dtd">
<svg version="1.0" xmlns="http://www.w3.org/2000/svg"
 width="512.000000pt" height="512.000000pt" viewBox="0 0 512.000000 512.000000"
 preserveAspectRatio="xMidYMid meet">
<metadata>
Created by potrace 1.11, written by Peter Selinger 2001-2013
</metadata>
<g transform="translate(0.000000,512.000000) scale(0.100000,-0.100000)"
fill="#000000" stroke="none">
<path d="M2106 4273 c-67 -114 -68 -117 -54 -147 14 -28 13 -35 -13 -99 -41
-99 -103 -295 -138 -432 -81 -322 -96 -720 -40 -1053 20 -122 55 -260 81 -321
l13 -29 63 57 63 58 -15 84 c-22 124 -25 151 -32 304 -18 387 80 823 271 1204
30 60 60 111 67 114 7 2 35 -4 61 -15 111 -42 224 -60 367 -55 131 4 240 25
240 47 0 5 -26 11 -57 15 -277 29 -474 121 -716 334 -32 28 -66 51 -75 51 -11
0 -41 -41 -86 -117z"/>
<path d="M3415 4283 c-9 -32 -30 -101 -45 -153 -16 -52 -74 -255 -130 -450
-56 -195 -133 -461 -170 -590 -74 -253 -157 -542 -276 -955 -42 -143 -105
-361 -140 -485 -36 -124 -85 -295 -110 -380 -24 -85 -60 -207 -78 -270 -39
-128 -60 -228 -55 -255 3 -13 12 -6 38 29 26 38 75 173 236 659 788 2381 938
2833 942 2839 3 6 -54 26 -179 64 -14 4 -20 -7 -33 -53z"/>
<path d="M2427 3800 c-4 -47 -12 -260 -17 -475 -6 -214 -13 -396 -15 -402 -2
-7 -5 -87 -5 -178 l-2 -165 -51 -48 c-28 -26 -83 -76 -122 -112 -38 -36 -97
-90 -130 -120 -33 -30 -112 -103 -175 -161 -63 -58 -207 -190 -320 -294 -271
-248 -310 -285 -310 -291 0 -2 38 -4 84 -4 334 0 730 -96 1044 -254 78 -39
114 -53 117 -44 2 7 43 148 90 313 48 165 100 344 116 399 16 54 29 104 29
110 0 6 -61 -50 -135 -124 -74 -74 -135 -131 -135 -126 0 4 9 15 19 24 10 10
78 86 150 171 119 140 133 159 152 223 11 38 18 72 16 74 -2 3 -35 -29 -72
-71 -38 -42 -91 -95 -119 -118 -34 -28 -8 6 82 106 125 137 135 152 153 215
10 37 19 72 19 78 0 6 -39 -28 -87 -77 -48 -49 -90 -89 -95 -89 -5 0 40 54 99
119 l107 119 88 304 c48 166 88 309 88 317 0 7 -55 -38 -121 -100 -67 -63
-137 -127 -157 -144 l-35 -29 5 209 c3 116 3 248 -2 295 -5 61 -8 -2 -9 -220
l-3 -305 -50 -45 -51 -45 4 285 c4 351 1 566 -8 557 -4 -4 -9 -200 -12 -435
l-6 -427 -40 -37 c-22 -21 -42 -38 -45 -38 -3 0 -2 127 1 282 7 304 1 744 -11
766 -4 8 -10 -89 -14 -215 -3 -125 -11 -376 -18 -557 l-11 -329 -36 -33 -36
-33 -3 27 c-2 14 1 107 7 207 12 192 13 843 2 960 l-7 70 -7 -85z m360 -912
c-3 -7 -5 -2 -5 12 0 14 2 19 5 13 2 -7 2 -19 0 -25z m-120 -190 c-2 -13 -4
-5 -4 17 -1 22 1 32 4 23 2 -10 2 -28 0 -40z m-30 -80 c-2 -13 -4 -3 -4 22 0
25 2 35 4 23 2 -13 2 -33 0 -45z m-260 -110 c-3 -8 -6 -5 -6 6 -1 11 2 17 5
13 3 -3 4 -12 1 -19z m260 -85 c-2 -16 -4 -5 -4 22 0 28 2 40 4 28 2 -13 2
-35 0 -50z m-260 -5 c-3 -8 -6 -5 -6 6 -1 11 2 17 5 13 3 -3 4 -12 1 -19z
m280 -10 c-3 -8 -6 -5 -6 6 -1 11 2 17 5 13 3 -3 4 -12 1 -19z m-280 -75 c-3
-10 -5 -4 -5 12 0 17 2 24 5 18 2 -7 2 -21 0 -30z m110 -185 c-3 -8 -6 -5 -6
6 -1 11 2 17 5 13 3 -3 4 -12 1 -19z m0 -60 c-3 -8 -6 -5 -6 6 -1 11 2 17 5
13 3 -3 4 -12 1 -19z m0 -60 c-3 -8 -6 -5 -6 6 -1 11 2 17 5 13 3 -3 4 -12 1
-19z"/>
<path d="M3572 3686 c-53 -52 -116 -111 -140 -133 -41 -38 -45 -47 -142 -338
-55 -164 -100 -301 -100 -304 0 -3 14 8 32 25 33 30 24 13 -23 -43 -15 -17
-38 -67 -52 -110 -14 -43 -29 -87 -33 -98 l-7 -20 23 20 c20 16 18 12 -6 -20
-17 -22 -43 -76 -57 -120 l-27 -80 38 40 c20 22 63 69 96 105 l59 65 -49 -70
c-26 -38 -76 -106 -111 -150 l-63 -80 -195 -591 c-107 -325 -195 -596 -195
-602 0 -7 3 -12 8 -12 4 0 40 -25 81 -56 41 -30 79 -53 86 -50 24 9 92 148
175 356 91 228 318 905 360 1075 4 17 31 113 60 215 51 184 105 383 202 745
71 268 85 325 81 325 -2 0 -48 -42 -101 -94z"/>
<path d="M3694 3687 c-29 -19 -34 -34 -98 -276 -254 -952 -316 -1163 -468
-1600 -134 -387 -177 -497 -247 -644 -75 -155 -63 -149 -156 -82 -100 71 -112
78 -120 64 -4 -6 -5 -12 -4 -13 2 -2 38 -24 79 -51 41 -26 88 -59 104 -72 l30
-25 47 94 c27 51 48 91 48 88 1 -8 -75 -189 -82 -196 -4 -4 -26 9 -49 27 -56
45 -171 119 -184 119 -3 0 -4 -6 -1 -14 3 -8 1 -17 -6 -20 -12 -5 29 -45 47
-46 12 0 153 -86 196 -120 64 -49 64 -49 98 63 129 431 241 781 247 775 2 -2
-34 -127 -81 -278 -46 -151 -98 -320 -115 -375 -17 -55 -40 -131 -52 -170 -12
-38 -22 -71 -23 -73 -1 -2 -42 24 -92 57 -102 68 -221 136 -227 129 -3 -3 37
-28 88 -56 50 -28 126 -74 167 -101 52 -35 76 -47 81 -38 4 6 44 134 89 282
232 764 346 1124 447 1410 128 363 269 737 325 860 27 61 52 116 55 124 5 11
2 11 -14 2 -21 -11 -86 -158 -174 -393 -24 -64 -45 -115 -47 -113 -9 8 121
351 170 449 16 32 28 60 26 62 -2 2 -13 1 -25 -2 -24 -6 -27 -15 -123 -299
-34 -99 -65 -189 -70 -200 -24 -51 9 60 95 317 81 242 90 275 71 267 -16 -8
-27 -32 -45 -97 -41 -148 -147 -484 -324 -1030 -11 -34 -22 -61 -24 -58 -4 4
57 225 87 311 86 248 293 930 288 950 -2 8 -13 6 -34 -8z m-734 -2484 c-96
-264 -104 -283 -113 -274 -7 7 -6 15 1 23 6 8 26 56 45 108 65 180 90 241 94
236 3 -2 -10 -44 -27 -93z"/>
<path d="M1367 1502 c-26 -28 -21 -32 36 -32 126 0 375 -38 567 -86 171 -42
265 -73 415 -139 112 -49 144 -54 116 -21 -17 20 -247 122 -366 163 -189 65
-377 105 -575 123 -156 14 -174 13 -193 -8z"/>
<path d="M1426 1411 l-30 -31 25 0 c79 -1 321 -21 419 -35 157 -23 398 -86
535 -140 122 -48 125 -49 125 -36 0 10 -156 79 -274 120 -196 69 -483 130
-686 146 l-85 7 -29 -31z"/>
<path d="M1463 1331 c-11 -18 -9 -19 65 -14 99 7 292 -11 456 -43 122 -24 393
-106 456 -139 36 -18 50 -19 50 -2 0 13 -11 19 -158 73 -222 81 -559 144 -779
144 -66 0 -80 -3 -90 -19z"/>
<path d="M1443 1289 c-10 -12 11 -13 128 -11 158 4 332 -15 500 -53 106 -25
318 -94 372 -121 16 -9 31 -13 35 -10 8 9 5 10 -93 49 -119 48 -311 102 -449
128 -144 27 -475 39 -493 18z"/>
</g>
</svg>
